G04 #@! TF.FileFunction,Legend,Top*
%FSLAX46Y46*%
G04 Gerber Fmt 4.6, Leading zero omitted, Abs format (unit mm)*
G04 Created by KiCad (PCBNEW 0.201509081510+6169~29~ubuntu14.04.1-product) date 2015-09-09T21:48:53 CEST*
%MOMM*%
G01*
G04 APERTURE LIST*
%ADD10C,0.100000*%
%ADD11C,0.150000*%
%ADD12C,0.127000*%
%ADD13C,0.010000*%
%ADD14C,0.120000*%
%ADD15C,0.175000*%
%ADD16R,0.750000X0.800000*%
%ADD17R,0.500000X0.900000*%
%ADD18R,0.800100X0.698500*%
%ADD19R,1.060000X0.650000*%
%ADD20R,1.727200X2.032000*%
%ADD21O,1.727200X2.032000*%
%ADD22R,0.800100X0.800100*%
%ADD23R,7.500000X1.500000*%
%ADD24R,6.500000X1.000000*%
%ADD25C,3.327400*%
%ADD26R,3.000000X0.900000*%
G04 APERTURE END LIST*
D10*
X92170334Y-73259190D02*
X92337001Y-73759190D01*
X92503667Y-73259190D01*
X92956048Y-73711571D02*
X92932238Y-73735381D01*
X92860810Y-73759190D01*
X92813191Y-73759190D01*
X92741762Y-73735381D01*
X92694143Y-73687762D01*
X92670334Y-73640143D01*
X92646524Y-73544905D01*
X92646524Y-73473476D01*
X92670334Y-73378238D01*
X92694143Y-73330619D01*
X92741762Y-73283000D01*
X92813191Y-73259190D01*
X92860810Y-73259190D01*
X92932238Y-73283000D01*
X92956048Y-73306810D01*
X93456048Y-73711571D02*
X93432238Y-73735381D01*
X93360810Y-73759190D01*
X93313191Y-73759190D01*
X93241762Y-73735381D01*
X93194143Y-73687762D01*
X93170334Y-73640143D01*
X93146524Y-73544905D01*
X93146524Y-73473476D01*
X93170334Y-73378238D01*
X93194143Y-73330619D01*
X93241762Y-73283000D01*
X93313191Y-73259190D01*
X93360810Y-73259190D01*
X93432238Y-73283000D01*
X93456048Y-73306810D01*
X89979547Y-73283000D02*
X89931928Y-73259190D01*
X89860500Y-73259190D01*
X89789071Y-73283000D01*
X89741452Y-73330619D01*
X89717643Y-73378238D01*
X89693833Y-73473476D01*
X89693833Y-73544905D01*
X89717643Y-73640143D01*
X89741452Y-73687762D01*
X89789071Y-73735381D01*
X89860500Y-73759190D01*
X89908119Y-73759190D01*
X89979547Y-73735381D01*
X90003357Y-73711571D01*
X90003357Y-73544905D01*
X89908119Y-73544905D01*
X90217643Y-73759190D02*
X90217643Y-73259190D01*
X90503357Y-73759190D01*
X90503357Y-73259190D01*
X90741453Y-73759190D02*
X90741453Y-73259190D01*
X90860500Y-73259190D01*
X90931929Y-73283000D01*
X90979548Y-73330619D01*
X91003357Y-73378238D01*
X91027167Y-73473476D01*
X91027167Y-73544905D01*
X91003357Y-73640143D01*
X90979548Y-73687762D01*
X90931929Y-73735381D01*
X90860500Y-73759190D01*
X90741453Y-73759190D01*
X93880810Y-67706857D02*
X93857000Y-67683047D01*
X93833190Y-67635428D01*
X93833190Y-67516381D01*
X93857000Y-67468762D01*
X93880810Y-67444952D01*
X93928429Y-67421143D01*
X93976048Y-67421143D01*
X94047476Y-67444952D01*
X94333190Y-67730666D01*
X94333190Y-67421143D01*
X95019857Y-72883000D02*
X94972238Y-72859190D01*
X94900810Y-72859190D01*
X94829381Y-72883000D01*
X94781762Y-72930619D01*
X94757953Y-72978238D01*
X94734143Y-73073476D01*
X94734143Y-73144905D01*
X94757953Y-73240143D01*
X94781762Y-73287762D01*
X94829381Y-73335381D01*
X94900810Y-73359190D01*
X94948429Y-73359190D01*
X95019857Y-73335381D01*
X95043667Y-73311571D01*
X95043667Y-73144905D01*
X94948429Y-73144905D01*
X95257953Y-73359190D02*
X95257953Y-72859190D01*
X95448429Y-72859190D01*
X95496048Y-72883000D01*
X95519857Y-72906810D01*
X95543667Y-72954429D01*
X95543667Y-73025857D01*
X95519857Y-73073476D01*
X95496048Y-73097286D01*
X95448429Y-73121095D01*
X95257953Y-73121095D01*
X95710334Y-72859190D02*
X96019857Y-72859190D01*
X95853191Y-73049667D01*
X95924619Y-73049667D01*
X95972238Y-73073476D01*
X95996048Y-73097286D01*
X96019857Y-73144905D01*
X96019857Y-73263952D01*
X95996048Y-73311571D01*
X95972238Y-73335381D01*
X95924619Y-73359190D01*
X95781762Y-73359190D01*
X95734143Y-73335381D01*
X95710334Y-73311571D01*
X94710334Y-73659190D02*
X94877001Y-74159190D01*
X95043667Y-73659190D01*
X95210334Y-74159190D02*
X95210334Y-73659190D01*
X95400810Y-73659190D01*
X95448429Y-73683000D01*
X95472238Y-73706810D01*
X95496048Y-73754429D01*
X95496048Y-73825857D01*
X95472238Y-73873476D01*
X95448429Y-73897286D01*
X95400810Y-73921095D01*
X95210334Y-73921095D01*
X95710334Y-74159190D02*
X95710334Y-73659190D01*
X95900810Y-73659190D01*
X95948429Y-73683000D01*
X95972238Y-73706810D01*
X95996048Y-73754429D01*
X95996048Y-73825857D01*
X95972238Y-73873476D01*
X95948429Y-73897286D01*
X95900810Y-73921095D01*
X95710334Y-73921095D01*
X84859857Y-72883000D02*
X84812238Y-72859190D01*
X84740810Y-72859190D01*
X84669381Y-72883000D01*
X84621762Y-72930619D01*
X84597953Y-72978238D01*
X84574143Y-73073476D01*
X84574143Y-73144905D01*
X84597953Y-73240143D01*
X84621762Y-73287762D01*
X84669381Y-73335381D01*
X84740810Y-73359190D01*
X84788429Y-73359190D01*
X84859857Y-73335381D01*
X84883667Y-73311571D01*
X84883667Y-73144905D01*
X84788429Y-73144905D01*
X85097953Y-73359190D02*
X85097953Y-72859190D01*
X85288429Y-72859190D01*
X85336048Y-72883000D01*
X85359857Y-72906810D01*
X85383667Y-72954429D01*
X85383667Y-73025857D01*
X85359857Y-73073476D01*
X85336048Y-73097286D01*
X85288429Y-73121095D01*
X85097953Y-73121095D01*
X85859857Y-73359190D02*
X85574143Y-73359190D01*
X85717000Y-73359190D02*
X85717000Y-72859190D01*
X85669381Y-72930619D01*
X85621762Y-72978238D01*
X85574143Y-73002048D01*
X84919381Y-74111571D02*
X84895571Y-74135381D01*
X84824143Y-74159190D01*
X84776524Y-74159190D01*
X84705095Y-74135381D01*
X84657476Y-74087762D01*
X84633667Y-74040143D01*
X84609857Y-73944905D01*
X84609857Y-73873476D01*
X84633667Y-73778238D01*
X84657476Y-73730619D01*
X84705095Y-73683000D01*
X84776524Y-73659190D01*
X84824143Y-73659190D01*
X84895571Y-73683000D01*
X84919381Y-73706810D01*
X85371762Y-74159190D02*
X85133667Y-74159190D01*
X85133667Y-73659190D01*
X85538429Y-74159190D02*
X85538429Y-73659190D01*
X85824143Y-74159190D02*
X85609857Y-73873476D01*
X85824143Y-73659190D02*
X85538429Y-73944905D01*
X87399857Y-72946500D02*
X87352238Y-72922690D01*
X87280810Y-72922690D01*
X87209381Y-72946500D01*
X87161762Y-72994119D01*
X87137953Y-73041738D01*
X87114143Y-73136976D01*
X87114143Y-73208405D01*
X87137953Y-73303643D01*
X87161762Y-73351262D01*
X87209381Y-73398881D01*
X87280810Y-73422690D01*
X87328429Y-73422690D01*
X87399857Y-73398881D01*
X87423667Y-73375071D01*
X87423667Y-73208405D01*
X87328429Y-73208405D01*
X87637953Y-73422690D02*
X87637953Y-72922690D01*
X87828429Y-72922690D01*
X87876048Y-72946500D01*
X87899857Y-72970310D01*
X87923667Y-73017929D01*
X87923667Y-73089357D01*
X87899857Y-73136976D01*
X87876048Y-73160786D01*
X87828429Y-73184595D01*
X87637953Y-73184595D01*
X88233191Y-72922690D02*
X88280810Y-72922690D01*
X88328429Y-72946500D01*
X88352238Y-72970310D01*
X88376048Y-73017929D01*
X88399857Y-73113167D01*
X88399857Y-73232214D01*
X88376048Y-73327452D01*
X88352238Y-73375071D01*
X88328429Y-73398881D01*
X88280810Y-73422690D01*
X88233191Y-73422690D01*
X88185572Y-73398881D01*
X88161762Y-73375071D01*
X88137953Y-73327452D01*
X88114143Y-73232214D01*
X88114143Y-73113167D01*
X88137953Y-73017929D01*
X88161762Y-72970310D01*
X88185572Y-72946500D01*
X88233191Y-72922690D01*
X87221287Y-74222690D02*
X87221287Y-73722690D01*
X87340334Y-73722690D01*
X87411763Y-73746500D01*
X87459382Y-73794119D01*
X87483191Y-73841738D01*
X87507001Y-73936976D01*
X87507001Y-74008405D01*
X87483191Y-74103643D01*
X87459382Y-74151262D01*
X87411763Y-74198881D01*
X87340334Y-74222690D01*
X87221287Y-74222690D01*
X87697477Y-74079833D02*
X87935572Y-74079833D01*
X87649858Y-74222690D02*
X87816525Y-73722690D01*
X87983191Y-74222690D01*
X88078429Y-73722690D02*
X88364143Y-73722690D01*
X88221286Y-74222690D02*
X88221286Y-73722690D01*
D11*
X92770197Y-65443277D02*
X92770197Y-65951277D01*
X88868197Y-65983777D02*
X88868197Y-65283777D01*
X90068197Y-65283777D02*
X90068197Y-65983777D01*
X99255197Y-72007277D02*
X100255197Y-72007277D01*
X100255197Y-73357277D02*
X99255197Y-73357277D01*
D12*
X92973397Y-65417877D02*
X92973397Y-65976677D01*
X92312997Y-65417877D02*
X92312997Y-65976677D01*
X92109797Y-65417877D02*
X92109797Y-65976677D01*
X92109797Y-65976677D02*
X93176597Y-65976677D01*
X93176597Y-65976677D02*
X93176597Y-65417877D01*
X93176597Y-65417877D02*
X92109797Y-65417877D01*
D11*
X86247197Y-64886277D02*
G75*
G03X86247197Y-64886277I-100000J0D01*
G01*
X86797197Y-65136277D02*
X86297197Y-65136277D01*
X86797197Y-68036277D02*
X86797197Y-65136277D01*
X86297197Y-68036277D02*
X86797197Y-68036277D01*
X86297197Y-65136277D02*
X86297197Y-68036277D01*
X95373697Y-69481277D02*
X96923697Y-69481277D01*
X96923697Y-69481277D02*
X96923697Y-72581277D01*
X96923697Y-72581277D02*
X95373697Y-72581277D01*
X94103697Y-72301277D02*
X83943697Y-72301277D01*
X83943697Y-72301277D02*
X83943697Y-69761277D01*
X83943697Y-69761277D02*
X94103697Y-69761277D01*
X94103697Y-72301277D02*
X94103697Y-69761277D01*
X97498357Y-65936037D02*
X97450097Y-65936037D01*
X94699377Y-66637077D02*
X94699377Y-65936037D01*
X94699377Y-65936037D02*
X94948297Y-65936037D01*
X97498357Y-65936037D02*
X97699017Y-65936037D01*
X97699017Y-65936037D02*
X97699017Y-66637077D01*
D13*
G36*
X97604538Y-61460525D02*
X97625350Y-61508410D01*
X97657161Y-61567039D01*
X97695895Y-61629664D01*
X97737475Y-61689540D01*
X97762195Y-61721464D01*
X97836519Y-61799399D01*
X97927832Y-61873967D01*
X98030039Y-61941264D01*
X98137044Y-61997387D01*
X98242751Y-62038430D01*
X98269136Y-62046114D01*
X98335212Y-62059082D01*
X98416317Y-62067706D01*
X98504763Y-62071786D01*
X98592864Y-62071120D01*
X98672933Y-62065510D01*
X98723082Y-62057938D01*
X98769414Y-62048382D01*
X98808703Y-62039974D01*
X98834083Y-62034193D01*
X98837689Y-62033266D01*
X98837629Y-62035230D01*
X98820164Y-62045220D01*
X98788735Y-62061334D01*
X98772383Y-62069380D01*
X98720404Y-62091959D01*
X98657212Y-62115459D01*
X98594124Y-62135761D01*
X98576110Y-62140828D01*
X98531640Y-62152154D01*
X98492205Y-62160214D01*
X98452238Y-62165549D01*
X98406170Y-62168699D01*
X98348434Y-62170204D01*
X98273461Y-62170605D01*
X98269136Y-62170605D01*
X98193511Y-62170264D01*
X98135341Y-62168866D01*
X98088996Y-62165854D01*
X98048846Y-62160669D01*
X98009260Y-62152751D01*
X97964607Y-62141541D01*
X97957680Y-62139691D01*
X97820384Y-62093447D01*
X97685000Y-62030090D01*
X97556913Y-61952805D01*
X97441510Y-61864779D01*
X97358749Y-61785339D01*
X97293999Y-61715401D01*
X97208567Y-61800832D01*
X97081032Y-61912852D01*
X96942155Y-62006123D01*
X96794027Y-62079971D01*
X96638738Y-62133721D01*
X96478378Y-62166696D01*
X96315037Y-62178222D01*
X96150805Y-62167624D01*
X96098590Y-62159483D01*
X96041592Y-62147774D01*
X95981278Y-62132991D01*
X95931181Y-62118480D01*
X95889954Y-62104038D01*
X95843892Y-62086385D01*
X95797711Y-62067539D01*
X95756127Y-62049517D01*
X95723857Y-62034340D01*
X95705617Y-62024026D01*
X95703393Y-62020986D01*
X95715294Y-62022523D01*
X95743050Y-62030037D01*
X95780708Y-62041913D01*
X95781586Y-62042206D01*
X95834502Y-62054596D01*
X95904190Y-62063375D01*
X95984606Y-62068493D01*
X96069708Y-62069902D01*
X96153451Y-62067554D01*
X96229795Y-62061400D01*
X96292695Y-62051392D01*
X96312181Y-62046462D01*
X96452904Y-61995355D01*
X96579801Y-61927464D01*
X96696358Y-61840652D01*
X96782027Y-61758760D01*
X96830700Y-61702678D01*
X96878866Y-61638652D01*
X96922613Y-61572619D01*
X96958026Y-61510513D01*
X96981191Y-61458271D01*
X96982258Y-61455122D01*
X96994346Y-61418494D01*
X97060241Y-61437369D01*
X97106794Y-61446400D01*
X97169469Y-61452600D01*
X97242226Y-61455976D01*
X97319023Y-61456535D01*
X97393821Y-61454285D01*
X97460579Y-61449233D01*
X97513255Y-61441386D01*
X97531222Y-61436800D01*
X97589944Y-61418413D01*
X97604538Y-61460525D01*
X97604538Y-61460525D01*
G37*
X97604538Y-61460525D02*
X97625350Y-61508410D01*
X97657161Y-61567039D01*
X97695895Y-61629664D01*
X97737475Y-61689540D01*
X97762195Y-61721464D01*
X97836519Y-61799399D01*
X97927832Y-61873967D01*
X98030039Y-61941264D01*
X98137044Y-61997387D01*
X98242751Y-62038430D01*
X98269136Y-62046114D01*
X98335212Y-62059082D01*
X98416317Y-62067706D01*
X98504763Y-62071786D01*
X98592864Y-62071120D01*
X98672933Y-62065510D01*
X98723082Y-62057938D01*
X98769414Y-62048382D01*
X98808703Y-62039974D01*
X98834083Y-62034193D01*
X98837689Y-62033266D01*
X98837629Y-62035230D01*
X98820164Y-62045220D01*
X98788735Y-62061334D01*
X98772383Y-62069380D01*
X98720404Y-62091959D01*
X98657212Y-62115459D01*
X98594124Y-62135761D01*
X98576110Y-62140828D01*
X98531640Y-62152154D01*
X98492205Y-62160214D01*
X98452238Y-62165549D01*
X98406170Y-62168699D01*
X98348434Y-62170204D01*
X98273461Y-62170605D01*
X98269136Y-62170605D01*
X98193511Y-62170264D01*
X98135341Y-62168866D01*
X98088996Y-62165854D01*
X98048846Y-62160669D01*
X98009260Y-62152751D01*
X97964607Y-62141541D01*
X97957680Y-62139691D01*
X97820384Y-62093447D01*
X97685000Y-62030090D01*
X97556913Y-61952805D01*
X97441510Y-61864779D01*
X97358749Y-61785339D01*
X97293999Y-61715401D01*
X97208567Y-61800832D01*
X97081032Y-61912852D01*
X96942155Y-62006123D01*
X96794027Y-62079971D01*
X96638738Y-62133721D01*
X96478378Y-62166696D01*
X96315037Y-62178222D01*
X96150805Y-62167624D01*
X96098590Y-62159483D01*
X96041592Y-62147774D01*
X95981278Y-62132991D01*
X95931181Y-62118480D01*
X95889954Y-62104038D01*
X95843892Y-62086385D01*
X95797711Y-62067539D01*
X95756127Y-62049517D01*
X95723857Y-62034340D01*
X95705617Y-62024026D01*
X95703393Y-62020986D01*
X95715294Y-62022523D01*
X95743050Y-62030037D01*
X95780708Y-62041913D01*
X95781586Y-62042206D01*
X95834502Y-62054596D01*
X95904190Y-62063375D01*
X95984606Y-62068493D01*
X96069708Y-62069902D01*
X96153451Y-62067554D01*
X96229795Y-62061400D01*
X96292695Y-62051392D01*
X96312181Y-62046462D01*
X96452904Y-61995355D01*
X96579801Y-61927464D01*
X96696358Y-61840652D01*
X96782027Y-61758760D01*
X96830700Y-61702678D01*
X96878866Y-61638652D01*
X96922613Y-61572619D01*
X96958026Y-61510513D01*
X96981191Y-61458271D01*
X96982258Y-61455122D01*
X96994346Y-61418494D01*
X97060241Y-61437369D01*
X97106794Y-61446400D01*
X97169469Y-61452600D01*
X97242226Y-61455976D01*
X97319023Y-61456535D01*
X97393821Y-61454285D01*
X97460579Y-61449233D01*
X97513255Y-61441386D01*
X97531222Y-61436800D01*
X97589944Y-61418413D01*
X97604538Y-61460525D01*
G36*
X98875272Y-62022182D02*
X98869500Y-62027955D01*
X98863727Y-62022182D01*
X98869500Y-62016409D01*
X98875272Y-62022182D01*
X98875272Y-62022182D01*
G37*
X98875272Y-62022182D02*
X98869500Y-62027955D01*
X98863727Y-62022182D01*
X98869500Y-62016409D01*
X98875272Y-62022182D01*
G36*
X96409047Y-60505291D02*
X96562994Y-60597505D01*
X96612534Y-60697934D01*
X96677898Y-60804822D01*
X96761968Y-60900224D01*
X96862408Y-60982162D01*
X96976881Y-61048662D01*
X97074181Y-61088465D01*
X97107135Y-61097886D01*
X97144091Y-61104204D01*
X97190293Y-61107912D01*
X97250983Y-61109503D01*
X97299318Y-61109640D01*
X97364689Y-61109188D01*
X97412823Y-61107677D01*
X97449571Y-61104242D01*
X97480785Y-61098015D01*
X97512318Y-61088130D01*
X97550022Y-61073720D01*
X97554838Y-61071805D01*
X97673867Y-61013035D01*
X97780052Y-60937456D01*
X97871028Y-60847242D01*
X97944429Y-60744567D01*
X97975902Y-60684758D01*
X98015136Y-60600360D01*
X98158506Y-60514635D01*
X98210373Y-60483776D01*
X98255496Y-60457220D01*
X98290019Y-60437213D01*
X98310091Y-60426001D01*
X98313146Y-60424506D01*
X98318678Y-60431760D01*
X98319321Y-60456825D01*
X98315661Y-60495079D01*
X98308283Y-60541901D01*
X98297772Y-60592667D01*
X98286147Y-60637801D01*
X98233457Y-60780653D01*
X98160392Y-60914332D01*
X98068704Y-61036272D01*
X97960142Y-61143907D01*
X97917000Y-61178865D01*
X97792650Y-61260121D01*
X97657617Y-61322575D01*
X97515160Y-61365429D01*
X97368539Y-61387883D01*
X97221016Y-61389139D01*
X97112761Y-61375874D01*
X96963782Y-61337573D01*
X96824978Y-61279436D01*
X96697792Y-61203005D01*
X96583665Y-61109818D01*
X96484042Y-61001418D01*
X96400364Y-60879344D01*
X96334074Y-60745137D01*
X96286614Y-60600337D01*
X96261794Y-60467176D01*
X96255100Y-60413078D01*
X96409047Y-60505291D01*
X96409047Y-60505291D01*
G37*
X96409047Y-60505291D02*
X96562994Y-60597505D01*
X96612534Y-60697934D01*
X96677898Y-60804822D01*
X96761968Y-60900224D01*
X96862408Y-60982162D01*
X96976881Y-61048662D01*
X97074181Y-61088465D01*
X97107135Y-61097886D01*
X97144091Y-61104204D01*
X97190293Y-61107912D01*
X97250983Y-61109503D01*
X97299318Y-61109640D01*
X97364689Y-61109188D01*
X97412823Y-61107677D01*
X97449571Y-61104242D01*
X97480785Y-61098015D01*
X97512318Y-61088130D01*
X97550022Y-61073720D01*
X97554838Y-61071805D01*
X97673867Y-61013035D01*
X97780052Y-60937456D01*
X97871028Y-60847242D01*
X97944429Y-60744567D01*
X97975902Y-60684758D01*
X98015136Y-60600360D01*
X98158506Y-60514635D01*
X98210373Y-60483776D01*
X98255496Y-60457220D01*
X98290019Y-60437213D01*
X98310091Y-60426001D01*
X98313146Y-60424506D01*
X98318678Y-60431760D01*
X98319321Y-60456825D01*
X98315661Y-60495079D01*
X98308283Y-60541901D01*
X98297772Y-60592667D01*
X98286147Y-60637801D01*
X98233457Y-60780653D01*
X98160392Y-60914332D01*
X98068704Y-61036272D01*
X97960142Y-61143907D01*
X97917000Y-61178865D01*
X97792650Y-61260121D01*
X97657617Y-61322575D01*
X97515160Y-61365429D01*
X97368539Y-61387883D01*
X97221016Y-61389139D01*
X97112761Y-61375874D01*
X96963782Y-61337573D01*
X96824978Y-61279436D01*
X96697792Y-61203005D01*
X96583665Y-61109818D01*
X96484042Y-61001418D01*
X96400364Y-60879344D01*
X96334074Y-60745137D01*
X96286614Y-60600337D01*
X96261794Y-60467176D01*
X96255100Y-60413078D01*
X96409047Y-60505291D01*
G36*
X97154888Y-60514655D02*
X97218463Y-60548061D01*
X97287083Y-60560494D01*
X97356131Y-60551955D01*
X97420992Y-60522442D01*
X97432202Y-60514655D01*
X97445122Y-60510848D01*
X97465604Y-60515797D01*
X97497536Y-60530973D01*
X97541883Y-60556122D01*
X97582524Y-60580172D01*
X97614883Y-60599548D01*
X97634341Y-60611473D01*
X97637828Y-60613807D01*
X97635250Y-60625049D01*
X97624543Y-60649856D01*
X97616532Y-60666150D01*
X97601911Y-60701125D01*
X97585405Y-60750314D01*
X97568815Y-60807028D01*
X97553939Y-60864578D01*
X97542577Y-60916274D01*
X97536530Y-60955427D01*
X97536000Y-60965499D01*
X97533355Y-60984627D01*
X97521832Y-60997828D01*
X97496048Y-61009649D01*
X97475386Y-61016704D01*
X97409779Y-61031811D01*
X97331743Y-61040193D01*
X97251054Y-61041455D01*
X97177487Y-61035206D01*
X97149227Y-61029819D01*
X97110169Y-61020994D01*
X97079273Y-61014756D01*
X97065522Y-61012696D01*
X97055240Y-61001715D01*
X97051096Y-60974266D01*
X97051090Y-60973026D01*
X97047418Y-60936671D01*
X97037612Y-60885558D01*
X97023488Y-60826607D01*
X97006863Y-60766738D01*
X96989552Y-60712873D01*
X96973372Y-60671932D01*
X96970557Y-60666150D01*
X96956668Y-60636915D01*
X96949444Y-60617650D01*
X96949262Y-60613807D01*
X96960184Y-60606856D01*
X96986410Y-60591009D01*
X97023320Y-60569043D01*
X97045207Y-60556122D01*
X97091576Y-60529899D01*
X97122811Y-60515296D01*
X97142800Y-60510843D01*
X97154888Y-60514655D01*
X97154888Y-60514655D01*
G37*
X97154888Y-60514655D02*
X97218463Y-60548061D01*
X97287083Y-60560494D01*
X97356131Y-60551955D01*
X97420992Y-60522442D01*
X97432202Y-60514655D01*
X97445122Y-60510848D01*
X97465604Y-60515797D01*
X97497536Y-60530973D01*
X97541883Y-60556122D01*
X97582524Y-60580172D01*
X97614883Y-60599548D01*
X97634341Y-60611473D01*
X97637828Y-60613807D01*
X97635250Y-60625049D01*
X97624543Y-60649856D01*
X97616532Y-60666150D01*
X97601911Y-60701125D01*
X97585405Y-60750314D01*
X97568815Y-60807028D01*
X97553939Y-60864578D01*
X97542577Y-60916274D01*
X97536530Y-60955427D01*
X97536000Y-60965499D01*
X97533355Y-60984627D01*
X97521832Y-60997828D01*
X97496048Y-61009649D01*
X97475386Y-61016704D01*
X97409779Y-61031811D01*
X97331743Y-61040193D01*
X97251054Y-61041455D01*
X97177487Y-61035206D01*
X97149227Y-61029819D01*
X97110169Y-61020994D01*
X97079273Y-61014756D01*
X97065522Y-61012696D01*
X97055240Y-61001715D01*
X97051096Y-60974266D01*
X97051090Y-60973026D01*
X97047418Y-60936671D01*
X97037612Y-60885558D01*
X97023488Y-60826607D01*
X97006863Y-60766738D01*
X96989552Y-60712873D01*
X96973372Y-60671932D01*
X96970557Y-60666150D01*
X96956668Y-60636915D01*
X96949444Y-60617650D01*
X96949262Y-60613807D01*
X96960184Y-60606856D01*
X96986410Y-60591009D01*
X97023320Y-60569043D01*
X97045207Y-60556122D01*
X97091576Y-60529899D01*
X97122811Y-60515296D01*
X97142800Y-60510843D01*
X97154888Y-60514655D01*
G36*
X96568283Y-58223237D02*
X96469901Y-58345828D01*
X96393416Y-58473565D01*
X96337853Y-58608421D01*
X96302236Y-58752368D01*
X96299927Y-58766143D01*
X96292052Y-58846455D01*
X96291089Y-58939031D01*
X96296550Y-59035054D01*
X96307949Y-59125708D01*
X96323800Y-59198701D01*
X96374961Y-59338005D01*
X96445621Y-59466937D01*
X96533837Y-59583693D01*
X96637663Y-59686467D01*
X96755156Y-59773453D01*
X96884371Y-59842848D01*
X97023365Y-59892844D01*
X97088126Y-59908439D01*
X97134824Y-59917258D01*
X97176133Y-59923733D01*
X97204044Y-59926632D01*
X97206467Y-59926682D01*
X97235818Y-59926682D01*
X97235818Y-60042499D01*
X97235311Y-60096216D01*
X97233316Y-60131186D01*
X97229123Y-60151737D01*
X97222021Y-60162201D01*
X97215613Y-60165605D01*
X97161894Y-60196592D01*
X97119989Y-60243875D01*
X97093480Y-60302177D01*
X97085727Y-60357024D01*
X97085727Y-60407286D01*
X96990477Y-60461589D01*
X96895227Y-60515893D01*
X96860590Y-60472858D01*
X96781440Y-60381502D01*
X96703396Y-60307244D01*
X96620427Y-60245224D01*
X96526504Y-60190581D01*
X96484536Y-60169710D01*
X96343459Y-60114391D01*
X96199930Y-60081068D01*
X96055977Y-60069084D01*
X95913624Y-60077782D01*
X95774901Y-60106507D01*
X95641834Y-60154600D01*
X95516450Y-60221405D01*
X95400775Y-60306267D01*
X95296837Y-60408527D01*
X95206663Y-60527530D01*
X95165164Y-60597129D01*
X95127912Y-60674850D01*
X95094979Y-60761034D01*
X95070621Y-60844134D01*
X95065443Y-60867635D01*
X95059687Y-60894394D01*
X95056700Y-60899742D01*
X95055282Y-60885013D01*
X95055060Y-60879182D01*
X95058249Y-60809018D01*
X95070999Y-60724637D01*
X95091755Y-60632061D01*
X95118962Y-60537312D01*
X95151064Y-60446412D01*
X95186507Y-60365383D01*
X95189062Y-60360257D01*
X95270847Y-60221632D01*
X95369952Y-60094408D01*
X95483914Y-59980499D01*
X95610269Y-59881824D01*
X95746553Y-59800297D01*
X95883791Y-59740665D01*
X96426589Y-59740665D01*
X96428195Y-59763145D01*
X96433364Y-59800762D01*
X96442188Y-59856716D01*
X96446612Y-59884027D01*
X96456163Y-59943683D01*
X96464238Y-59995716D01*
X96470156Y-60035619D01*
X96473237Y-60058885D01*
X96473521Y-60062341D01*
X96478876Y-60067178D01*
X96496164Y-60070886D01*
X96527560Y-60073582D01*
X96575234Y-60075383D01*
X96641360Y-60076406D01*
X96728110Y-60076768D01*
X96741287Y-60076773D01*
X96816760Y-60076593D01*
X96883574Y-60076088D01*
X96938593Y-60075310D01*
X96978684Y-60074313D01*
X97000710Y-60073147D01*
X97003946Y-60072384D01*
X96993020Y-60065327D01*
X96965395Y-60048227D01*
X96924153Y-60022953D01*
X96872379Y-59991373D01*
X96813155Y-59955355D01*
X96749565Y-59916766D01*
X96684691Y-59877476D01*
X96621617Y-59839351D01*
X96563425Y-59804260D01*
X96513199Y-59774071D01*
X96474022Y-59750653D01*
X96448977Y-59735872D01*
X96442233Y-59732042D01*
X96433701Y-59728314D01*
X96428456Y-59730121D01*
X96426589Y-59740665D01*
X95883791Y-59740665D01*
X95890302Y-59737836D01*
X96039053Y-59696356D01*
X96043903Y-59695389D01*
X96081015Y-59686902D01*
X96107013Y-59678691D01*
X96115909Y-59672987D01*
X96112403Y-59658500D01*
X96103279Y-59629042D01*
X96092408Y-59596558D01*
X96057751Y-59464330D01*
X96039989Y-59321485D01*
X96038906Y-59172909D01*
X96054287Y-59023491D01*
X96085916Y-58878118D01*
X96129644Y-58751033D01*
X96193136Y-58621143D01*
X96272711Y-58496020D01*
X96364740Y-58380228D01*
X96465593Y-58278331D01*
X96571641Y-58194896D01*
X96571954Y-58194684D01*
X96629681Y-58155668D01*
X96568283Y-58223237D01*
X96568283Y-58223237D01*
G37*
X96568283Y-58223237D02*
X96469901Y-58345828D01*
X96393416Y-58473565D01*
X96337853Y-58608421D01*
X96302236Y-58752368D01*
X96299927Y-58766143D01*
X96292052Y-58846455D01*
X96291089Y-58939031D01*
X96296550Y-59035054D01*
X96307949Y-59125708D01*
X96323800Y-59198701D01*
X96374961Y-59338005D01*
X96445621Y-59466937D01*
X96533837Y-59583693D01*
X96637663Y-59686467D01*
X96755156Y-59773453D01*
X96884371Y-59842848D01*
X97023365Y-59892844D01*
X97088126Y-59908439D01*
X97134824Y-59917258D01*
X97176133Y-59923733D01*
X97204044Y-59926632D01*
X97206467Y-59926682D01*
X97235818Y-59926682D01*
X97235818Y-60042499D01*
X97235311Y-60096216D01*
X97233316Y-60131186D01*
X97229123Y-60151737D01*
X97222021Y-60162201D01*
X97215613Y-60165605D01*
X97161894Y-60196592D01*
X97119989Y-60243875D01*
X97093480Y-60302177D01*
X97085727Y-60357024D01*
X97085727Y-60407286D01*
X96990477Y-60461589D01*
X96895227Y-60515893D01*
X96860590Y-60472858D01*
X96781440Y-60381502D01*
X96703396Y-60307244D01*
X96620427Y-60245224D01*
X96526504Y-60190581D01*
X96484536Y-60169710D01*
X96343459Y-60114391D01*
X96199930Y-60081068D01*
X96055977Y-60069084D01*
X95913624Y-60077782D01*
X95774901Y-60106507D01*
X95641834Y-60154600D01*
X95516450Y-60221405D01*
X95400775Y-60306267D01*
X95296837Y-60408527D01*
X95206663Y-60527530D01*
X95165164Y-60597129D01*
X95127912Y-60674850D01*
X95094979Y-60761034D01*
X95070621Y-60844134D01*
X95065443Y-60867635D01*
X95059687Y-60894394D01*
X95056700Y-60899742D01*
X95055282Y-60885013D01*
X95055060Y-60879182D01*
X95058249Y-60809018D01*
X95070999Y-60724637D01*
X95091755Y-60632061D01*
X95118962Y-60537312D01*
X95151064Y-60446412D01*
X95186507Y-60365383D01*
X95189062Y-60360257D01*
X95270847Y-60221632D01*
X95369952Y-60094408D01*
X95483914Y-59980499D01*
X95610269Y-59881824D01*
X95746553Y-59800297D01*
X95883791Y-59740665D01*
X96426589Y-59740665D01*
X96428195Y-59763145D01*
X96433364Y-59800762D01*
X96442188Y-59856716D01*
X96446612Y-59884027D01*
X96456163Y-59943683D01*
X96464238Y-59995716D01*
X96470156Y-60035619D01*
X96473237Y-60058885D01*
X96473521Y-60062341D01*
X96478876Y-60067178D01*
X96496164Y-60070886D01*
X96527560Y-60073582D01*
X96575234Y-60075383D01*
X96641360Y-60076406D01*
X96728110Y-60076768D01*
X96741287Y-60076773D01*
X96816760Y-60076593D01*
X96883574Y-60076088D01*
X96938593Y-60075310D01*
X96978684Y-60074313D01*
X97000710Y-60073147D01*
X97003946Y-60072384D01*
X96993020Y-60065327D01*
X96965395Y-60048227D01*
X96924153Y-60022953D01*
X96872379Y-59991373D01*
X96813155Y-59955355D01*
X96749565Y-59916766D01*
X96684691Y-59877476D01*
X96621617Y-59839351D01*
X96563425Y-59804260D01*
X96513199Y-59774071D01*
X96474022Y-59750653D01*
X96448977Y-59735872D01*
X96442233Y-59732042D01*
X96433701Y-59728314D01*
X96428456Y-59730121D01*
X96426589Y-59740665D01*
X95883791Y-59740665D01*
X95890302Y-59737836D01*
X96039053Y-59696356D01*
X96043903Y-59695389D01*
X96081015Y-59686902D01*
X96107013Y-59678691D01*
X96115909Y-59672987D01*
X96112403Y-59658500D01*
X96103279Y-59629042D01*
X96092408Y-59596558D01*
X96057751Y-59464330D01*
X96039989Y-59321485D01*
X96038906Y-59172909D01*
X96054287Y-59023491D01*
X96085916Y-58878118D01*
X96129644Y-58751033D01*
X96193136Y-58621143D01*
X96272711Y-58496020D01*
X96364740Y-58380228D01*
X96465593Y-58278331D01*
X96571641Y-58194896D01*
X96571954Y-58194684D01*
X96629681Y-58155668D01*
X96568283Y-58223237D01*
G36*
X98009363Y-58195714D02*
X98083609Y-58252955D01*
X98161608Y-58324681D01*
X98237173Y-58404536D01*
X98304121Y-58486162D01*
X98337081Y-58532588D01*
X98419438Y-58677007D01*
X98481596Y-58829971D01*
X98523233Y-58988959D01*
X98544026Y-59151452D01*
X98543653Y-59314928D01*
X98521791Y-59476867D01*
X98478117Y-59634749D01*
X98478106Y-59634781D01*
X98461487Y-59681883D01*
X98511776Y-59689425D01*
X98573006Y-59702639D01*
X98646788Y-59724829D01*
X98725683Y-59753419D01*
X98802248Y-59785834D01*
X98833593Y-59800799D01*
X98975593Y-59884033D01*
X99104682Y-59985033D01*
X99219310Y-60101669D01*
X99317925Y-60231814D01*
X99398979Y-60373336D01*
X99460920Y-60524107D01*
X99502199Y-60681998D01*
X99510310Y-60730356D01*
X99516063Y-60776412D01*
X99519271Y-60815874D01*
X99520059Y-60845730D01*
X99518554Y-60862965D01*
X99514884Y-60864565D01*
X99509176Y-60847515D01*
X99505985Y-60833000D01*
X99487344Y-60765550D01*
X99457833Y-60688148D01*
X99420968Y-60608903D01*
X99380269Y-60535925D01*
X99370294Y-60520203D01*
X99280459Y-60402340D01*
X99177709Y-60302133D01*
X99064126Y-60219681D01*
X98941794Y-60155084D01*
X98812798Y-60108440D01*
X98679219Y-60079850D01*
X98543142Y-60069412D01*
X98406651Y-60077227D01*
X98271828Y-60103393D01*
X98140758Y-60148011D01*
X98015523Y-60211179D01*
X97898207Y-60292997D01*
X97790894Y-60393564D01*
X97748201Y-60442773D01*
X97720960Y-60475004D01*
X97699018Y-60498738D01*
X97686545Y-60509506D01*
X97685718Y-60509727D01*
X97672758Y-60504453D01*
X97644637Y-60490312D01*
X97606278Y-60469829D01*
X97584391Y-60457773D01*
X97539803Y-60432118D01*
X97512516Y-60413669D01*
X97499114Y-60399440D01*
X97496179Y-60386442D01*
X97497050Y-60381391D01*
X97497545Y-60336887D01*
X97481883Y-60287029D01*
X97453776Y-60238229D01*
X97416938Y-60196896D01*
X97375083Y-60169441D01*
X97374017Y-60168993D01*
X97338928Y-60154459D01*
X97341429Y-60070299D01*
X97561716Y-60070299D01*
X97570811Y-60072149D01*
X97599855Y-60073793D01*
X97645707Y-60075151D01*
X97705224Y-60076144D01*
X97775266Y-60076691D01*
X97816719Y-60076773D01*
X98078196Y-60076773D01*
X98084196Y-60050796D01*
X98089208Y-60025426D01*
X98096062Y-59985870D01*
X98104007Y-59937065D01*
X98112296Y-59883951D01*
X98120179Y-59831467D01*
X98126906Y-59784551D01*
X98131729Y-59748143D01*
X98133897Y-59727180D01*
X98133769Y-59724048D01*
X98123708Y-59729082D01*
X98096974Y-59744383D01*
X98056573Y-59768133D01*
X98005508Y-59798514D01*
X97946782Y-59833707D01*
X97883401Y-59871896D01*
X97818367Y-59911260D01*
X97754685Y-59949983D01*
X97695358Y-59986245D01*
X97643391Y-60018229D01*
X97601787Y-60044117D01*
X97573550Y-60062090D01*
X97561716Y-60070299D01*
X97341429Y-60070299D01*
X97342214Y-60043923D01*
X97345500Y-59933388D01*
X97432090Y-59919532D01*
X97586070Y-59883976D01*
X97728261Y-59828893D01*
X97857675Y-59755070D01*
X97973325Y-59663296D01*
X98074227Y-59554356D01*
X98159391Y-59429038D01*
X98227832Y-59288129D01*
X98229805Y-59283196D01*
X98270917Y-59149365D01*
X98291877Y-59008456D01*
X98292832Y-58864395D01*
X98273930Y-58721108D01*
X98235318Y-58582522D01*
X98200281Y-58498000D01*
X98159270Y-58418578D01*
X98115049Y-58349234D01*
X98061887Y-58281732D01*
X98010071Y-58224578D01*
X97934318Y-58144610D01*
X98009363Y-58195714D01*
X98009363Y-58195714D01*
G37*
X98009363Y-58195714D02*
X98083609Y-58252955D01*
X98161608Y-58324681D01*
X98237173Y-58404536D01*
X98304121Y-58486162D01*
X98337081Y-58532588D01*
X98419438Y-58677007D01*
X98481596Y-58829971D01*
X98523233Y-58988959D01*
X98544026Y-59151452D01*
X98543653Y-59314928D01*
X98521791Y-59476867D01*
X98478117Y-59634749D01*
X98478106Y-59634781D01*
X98461487Y-59681883D01*
X98511776Y-59689425D01*
X98573006Y-59702639D01*
X98646788Y-59724829D01*
X98725683Y-59753419D01*
X98802248Y-59785834D01*
X98833593Y-59800799D01*
X98975593Y-59884033D01*
X99104682Y-59985033D01*
X99219310Y-60101669D01*
X99317925Y-60231814D01*
X99398979Y-60373336D01*
X99460920Y-60524107D01*
X99502199Y-60681998D01*
X99510310Y-60730356D01*
X99516063Y-60776412D01*
X99519271Y-60815874D01*
X99520059Y-60845730D01*
X99518554Y-60862965D01*
X99514884Y-60864565D01*
X99509176Y-60847515D01*
X99505985Y-60833000D01*
X99487344Y-60765550D01*
X99457833Y-60688148D01*
X99420968Y-60608903D01*
X99380269Y-60535925D01*
X99370294Y-60520203D01*
X99280459Y-60402340D01*
X99177709Y-60302133D01*
X99064126Y-60219681D01*
X98941794Y-60155084D01*
X98812798Y-60108440D01*
X98679219Y-60079850D01*
X98543142Y-60069412D01*
X98406651Y-60077227D01*
X98271828Y-60103393D01*
X98140758Y-60148011D01*
X98015523Y-60211179D01*
X97898207Y-60292997D01*
X97790894Y-60393564D01*
X97748201Y-60442773D01*
X97720960Y-60475004D01*
X97699018Y-60498738D01*
X97686545Y-60509506D01*
X97685718Y-60509727D01*
X97672758Y-60504453D01*
X97644637Y-60490312D01*
X97606278Y-60469829D01*
X97584391Y-60457773D01*
X97539803Y-60432118D01*
X97512516Y-60413669D01*
X97499114Y-60399440D01*
X97496179Y-60386442D01*
X97497050Y-60381391D01*
X97497545Y-60336887D01*
X97481883Y-60287029D01*
X97453776Y-60238229D01*
X97416938Y-60196896D01*
X97375083Y-60169441D01*
X97374017Y-60168993D01*
X97338928Y-60154459D01*
X97341429Y-60070299D01*
X97561716Y-60070299D01*
X97570811Y-60072149D01*
X97599855Y-60073793D01*
X97645707Y-60075151D01*
X97705224Y-60076144D01*
X97775266Y-60076691D01*
X97816719Y-60076773D01*
X98078196Y-60076773D01*
X98084196Y-60050796D01*
X98089208Y-60025426D01*
X98096062Y-59985870D01*
X98104007Y-59937065D01*
X98112296Y-59883951D01*
X98120179Y-59831467D01*
X98126906Y-59784551D01*
X98131729Y-59748143D01*
X98133897Y-59727180D01*
X98133769Y-59724048D01*
X98123708Y-59729082D01*
X98096974Y-59744383D01*
X98056573Y-59768133D01*
X98005508Y-59798514D01*
X97946782Y-59833707D01*
X97883401Y-59871896D01*
X97818367Y-59911260D01*
X97754685Y-59949983D01*
X97695358Y-59986245D01*
X97643391Y-60018229D01*
X97601787Y-60044117D01*
X97573550Y-60062090D01*
X97561716Y-60070299D01*
X97341429Y-60070299D01*
X97342214Y-60043923D01*
X97345500Y-59933388D01*
X97432090Y-59919532D01*
X97586070Y-59883976D01*
X97728261Y-59828893D01*
X97857675Y-59755070D01*
X97973325Y-59663296D01*
X98074227Y-59554356D01*
X98159391Y-59429038D01*
X98227832Y-59288129D01*
X98229805Y-59283196D01*
X98270917Y-59149365D01*
X98291877Y-59008456D01*
X98292832Y-58864395D01*
X98273930Y-58721108D01*
X98235318Y-58582522D01*
X98200281Y-58498000D01*
X98159270Y-58418578D01*
X98115049Y-58349234D01*
X98061887Y-58281732D01*
X98010071Y-58224578D01*
X97934318Y-58144610D01*
X98009363Y-58195714D01*
G36*
X96654923Y-58144594D02*
X96652772Y-58148682D01*
X96641894Y-58159708D01*
X96639864Y-58160227D01*
X96639076Y-58152770D01*
X96641227Y-58148682D01*
X96652105Y-58137656D01*
X96654135Y-58137137D01*
X96654923Y-58144594D01*
X96654923Y-58144594D01*
G37*
X96654923Y-58144594D02*
X96652772Y-58148682D01*
X96641894Y-58159708D01*
X96639864Y-58160227D01*
X96639076Y-58152770D01*
X96641227Y-58148682D01*
X96652105Y-58137656D01*
X96654135Y-58137137D01*
X96654923Y-58144594D01*
D10*
X88948388Y-67828467D02*
X88662674Y-67828467D01*
X88805531Y-67828467D02*
X88805531Y-67328467D01*
X88757912Y-67399896D01*
X88710293Y-67447515D01*
X88662674Y-67471325D01*
X89257912Y-67328467D02*
X89305531Y-67328467D01*
X89353150Y-67352277D01*
X89376959Y-67376087D01*
X89400769Y-67423706D01*
X89424578Y-67518944D01*
X89424578Y-67637991D01*
X89400769Y-67733229D01*
X89376959Y-67780848D01*
X89353150Y-67804658D01*
X89305531Y-67828467D01*
X89257912Y-67828467D01*
X89210293Y-67804658D01*
X89186483Y-67780848D01*
X89162674Y-67733229D01*
X89138864Y-67637991D01*
X89138864Y-67518944D01*
X89162674Y-67423706D01*
X89186483Y-67376087D01*
X89210293Y-67352277D01*
X89257912Y-67328467D01*
X89734102Y-67328467D02*
X89781721Y-67328467D01*
X89829340Y-67352277D01*
X89853149Y-67376087D01*
X89876959Y-67423706D01*
X89900768Y-67518944D01*
X89900768Y-67637991D01*
X89876959Y-67733229D01*
X89853149Y-67780848D01*
X89829340Y-67804658D01*
X89781721Y-67828467D01*
X89734102Y-67828467D01*
X89686483Y-67804658D01*
X89662673Y-67780848D01*
X89638864Y-67733229D01*
X89615054Y-67637991D01*
X89615054Y-67518944D01*
X89638864Y-67423706D01*
X89662673Y-67376087D01*
X89686483Y-67352277D01*
X89734102Y-67328467D01*
X90115054Y-67495134D02*
X90115054Y-67828467D01*
X90115054Y-67542753D02*
X90138863Y-67518944D01*
X90186482Y-67495134D01*
X90257911Y-67495134D01*
X90305530Y-67518944D01*
X90329339Y-67566563D01*
X90329339Y-67828467D01*
X90734101Y-67566563D02*
X90567435Y-67566563D01*
X90567435Y-67828467D02*
X90567435Y-67328467D01*
X90805530Y-67328467D01*
X99398054Y-74350706D02*
X99055197Y-74350706D01*
X99226625Y-74350706D02*
X99226625Y-73750706D01*
X99169482Y-73836420D01*
X99112340Y-73893563D01*
X99055197Y-73922134D01*
X99769483Y-73750706D02*
X99826626Y-73750706D01*
X99883769Y-73779277D01*
X99912340Y-73807848D01*
X99940911Y-73864991D01*
X99969483Y-73979277D01*
X99969483Y-74122134D01*
X99940911Y-74236420D01*
X99912340Y-74293563D01*
X99883769Y-74322134D01*
X99826626Y-74350706D01*
X99769483Y-74350706D01*
X99712340Y-74322134D01*
X99683769Y-74293563D01*
X99655197Y-74236420D01*
X99626626Y-74122134D01*
X99626626Y-73979277D01*
X99655197Y-73864991D01*
X99683769Y-73807848D01*
X99712340Y-73779277D01*
X99769483Y-73750706D01*
X100226626Y-74350706D02*
X100226626Y-73750706D01*
X100283769Y-74122134D02*
X100455198Y-74350706D01*
X100455198Y-73950706D02*
X100226626Y-74179277D01*
X92051263Y-64623190D02*
X92336977Y-64623190D01*
X92194120Y-65123190D02*
X92194120Y-64623190D01*
X92432215Y-64623190D02*
X92598882Y-65123190D01*
X92765548Y-64623190D01*
X92908405Y-65099381D02*
X92979834Y-65123190D01*
X93098881Y-65123190D01*
X93146500Y-65099381D01*
X93170310Y-65075571D01*
X93194119Y-65027952D01*
X93194119Y-64980333D01*
X93170310Y-64932714D01*
X93146500Y-64908905D01*
X93098881Y-64885095D01*
X93003643Y-64861286D01*
X92956024Y-64837476D01*
X92932215Y-64813667D01*
X92908405Y-64766048D01*
X92908405Y-64718429D01*
X92932215Y-64670810D01*
X92956024Y-64647000D01*
X93003643Y-64623190D01*
X93122691Y-64623190D01*
X93194119Y-64647000D01*
X85356722Y-64526467D02*
X85356722Y-64026467D01*
X85547198Y-64026467D01*
X85594817Y-64050277D01*
X85618626Y-64074087D01*
X85642436Y-64121706D01*
X85642436Y-64193134D01*
X85618626Y-64240753D01*
X85594817Y-64264563D01*
X85547198Y-64288372D01*
X85356722Y-64288372D01*
X85856722Y-64526467D02*
X85856722Y-64026467D01*
X86380531Y-64478848D02*
X86356721Y-64502658D01*
X86285293Y-64526467D01*
X86237674Y-64526467D01*
X86166245Y-64502658D01*
X86118626Y-64455039D01*
X86094817Y-64407420D01*
X86071007Y-64312182D01*
X86071007Y-64240753D01*
X86094817Y-64145515D01*
X86118626Y-64097896D01*
X86166245Y-64050277D01*
X86237674Y-64026467D01*
X86285293Y-64026467D01*
X86356721Y-64050277D01*
X86380531Y-64074087D01*
X86856721Y-64526467D02*
X86571007Y-64526467D01*
X86713864Y-64526467D02*
X86713864Y-64026467D01*
X86666245Y-64097896D01*
X86618626Y-64145515D01*
X86571007Y-64169325D01*
X87166245Y-64026467D02*
X87213864Y-64026467D01*
X87261483Y-64050277D01*
X87285292Y-64074087D01*
X87309102Y-64121706D01*
X87332911Y-64216944D01*
X87332911Y-64335991D01*
X87309102Y-64431229D01*
X87285292Y-64478848D01*
X87261483Y-64502658D01*
X87213864Y-64526467D01*
X87166245Y-64526467D01*
X87118626Y-64502658D01*
X87094816Y-64478848D01*
X87071007Y-64431229D01*
X87047197Y-64335991D01*
X87047197Y-64216944D01*
X87071007Y-64121706D01*
X87094816Y-64074087D01*
X87118626Y-64050277D01*
X87166245Y-64026467D01*
X87713863Y-64264563D02*
X87547197Y-64264563D01*
X87547197Y-64526467D02*
X87547197Y-64026467D01*
X87785292Y-64026467D01*
X89558906Y-69377690D02*
X89558906Y-68877690D01*
X90082715Y-69330071D02*
X90058905Y-69353881D01*
X89987477Y-69377690D01*
X89939858Y-69377690D01*
X89868429Y-69353881D01*
X89820810Y-69306262D01*
X89797001Y-69258643D01*
X89773191Y-69163405D01*
X89773191Y-69091976D01*
X89797001Y-68996738D01*
X89820810Y-68949119D01*
X89868429Y-68901500D01*
X89939858Y-68877690D01*
X89987477Y-68877690D01*
X90058905Y-68901500D01*
X90082715Y-68925310D01*
X90273191Y-69353881D02*
X90344620Y-69377690D01*
X90463667Y-69377690D01*
X90511286Y-69353881D01*
X90535096Y-69330071D01*
X90558905Y-69282452D01*
X90558905Y-69234833D01*
X90535096Y-69187214D01*
X90511286Y-69163405D01*
X90463667Y-69139595D01*
X90368429Y-69115786D01*
X90320810Y-69091976D01*
X90297001Y-69068167D01*
X90273191Y-69020548D01*
X90273191Y-68972929D01*
X90297001Y-68925310D01*
X90320810Y-68901500D01*
X90368429Y-68877690D01*
X90487477Y-68877690D01*
X90558905Y-68901500D01*
X90773191Y-69377690D02*
X90773191Y-68877690D01*
X90963667Y-68877690D01*
X91011286Y-68901500D01*
X91035095Y-68925310D01*
X91058905Y-68972929D01*
X91058905Y-69044357D01*
X91035095Y-69091976D01*
X91011286Y-69115786D01*
X90963667Y-69139595D01*
X90773191Y-69139595D01*
X95282531Y-64780467D02*
X95282531Y-64280467D01*
X95473007Y-64280467D01*
X95520626Y-64304277D01*
X95544435Y-64328087D01*
X95568245Y-64375706D01*
X95568245Y-64447134D01*
X95544435Y-64494753D01*
X95520626Y-64518563D01*
X95473007Y-64542372D01*
X95282531Y-64542372D01*
X95782531Y-64780467D02*
X95782531Y-64280467D01*
X95949197Y-64637610D01*
X96115864Y-64280467D01*
X96115864Y-64780467D01*
X96449198Y-64280467D02*
X96544436Y-64280467D01*
X96592055Y-64304277D01*
X96639674Y-64351896D01*
X96663483Y-64447134D01*
X96663483Y-64613801D01*
X96639674Y-64709039D01*
X96592055Y-64756658D01*
X96544436Y-64780467D01*
X96449198Y-64780467D01*
X96401579Y-64756658D01*
X96353960Y-64709039D01*
X96330150Y-64613801D01*
X96330150Y-64447134D01*
X96353960Y-64351896D01*
X96401579Y-64304277D01*
X96449198Y-64280467D01*
X96853960Y-64756658D02*
X96925389Y-64780467D01*
X97044436Y-64780467D01*
X97092055Y-64756658D01*
X97115865Y-64732848D01*
X97139674Y-64685229D01*
X97139674Y-64637610D01*
X97115865Y-64589991D01*
X97092055Y-64566182D01*
X97044436Y-64542372D01*
X96949198Y-64518563D01*
X96901579Y-64494753D01*
X96877770Y-64470944D01*
X96853960Y-64423325D01*
X96853960Y-64375706D01*
X96877770Y-64328087D01*
X96901579Y-64304277D01*
X96949198Y-64280467D01*
X97068246Y-64280467D01*
X97139674Y-64304277D01*
D14*
X94877239Y-62567357D02*
X94877239Y-62900690D01*
X94662954Y-62567357D02*
X94662954Y-62829262D01*
X94686763Y-62876881D01*
X94734382Y-62900690D01*
X94805811Y-62900690D01*
X94853430Y-62876881D01*
X94877239Y-62853071D01*
X95115335Y-62567357D02*
X95115335Y-62900690D01*
X95115335Y-62614976D02*
X95139144Y-62591167D01*
X95186763Y-62567357D01*
X95258192Y-62567357D01*
X95305811Y-62591167D01*
X95329620Y-62638786D01*
X95329620Y-62900690D01*
X95758192Y-62876881D02*
X95710573Y-62900690D01*
X95615335Y-62900690D01*
X95567716Y-62876881D01*
X95543906Y-62829262D01*
X95543906Y-62638786D01*
X95567716Y-62591167D01*
X95615335Y-62567357D01*
X95710573Y-62567357D01*
X95758192Y-62591167D01*
X95782001Y-62638786D01*
X95782001Y-62686405D01*
X95543906Y-62734024D01*
X95924858Y-62567357D02*
X96115334Y-62567357D01*
X95996287Y-62400690D02*
X95996287Y-62829262D01*
X96020096Y-62876881D01*
X96067715Y-62900690D01*
X96115334Y-62900690D01*
X96282001Y-62900690D02*
X96282001Y-62400690D01*
X96496286Y-62900690D02*
X96496286Y-62638786D01*
X96472477Y-62591167D01*
X96424858Y-62567357D01*
X96353429Y-62567357D01*
X96305810Y-62591167D01*
X96282001Y-62614976D01*
X96734382Y-62900690D02*
X96734382Y-62567357D01*
X96734382Y-62400690D02*
X96710572Y-62424500D01*
X96734382Y-62448310D01*
X96758191Y-62424500D01*
X96734382Y-62400690D01*
X96734382Y-62448310D01*
X96948667Y-62876881D02*
X96996286Y-62900690D01*
X97091524Y-62900690D01*
X97139143Y-62876881D01*
X97162953Y-62829262D01*
X97162953Y-62805452D01*
X97139143Y-62757833D01*
X97091524Y-62734024D01*
X97020096Y-62734024D01*
X96972477Y-62710214D01*
X96948667Y-62662595D01*
X96948667Y-62638786D01*
X96972477Y-62591167D01*
X97020096Y-62567357D01*
X97091524Y-62567357D01*
X97139143Y-62591167D01*
X97591524Y-62876881D02*
X97543905Y-62900690D01*
X97448667Y-62900690D01*
X97401048Y-62876881D01*
X97377239Y-62853071D01*
X97353429Y-62805452D01*
X97353429Y-62662595D01*
X97377239Y-62614976D01*
X97401048Y-62591167D01*
X97448667Y-62567357D01*
X97543905Y-62567357D01*
X97591524Y-62591167D01*
X97805810Y-62900690D02*
X97805810Y-62400690D01*
X98020095Y-62900690D02*
X98020095Y-62638786D01*
X97996286Y-62591167D01*
X97948667Y-62567357D01*
X97877238Y-62567357D01*
X97829619Y-62591167D01*
X97805810Y-62614976D01*
X98448667Y-62876881D02*
X98401048Y-62900690D01*
X98305810Y-62900690D01*
X98258191Y-62876881D01*
X98234381Y-62829262D01*
X98234381Y-62638786D01*
X98258191Y-62591167D01*
X98305810Y-62567357D01*
X98401048Y-62567357D01*
X98448667Y-62591167D01*
X98472476Y-62638786D01*
X98472476Y-62686405D01*
X98234381Y-62734024D01*
X98686762Y-62853071D02*
X98710571Y-62876881D01*
X98686762Y-62900690D01*
X98662952Y-62876881D01*
X98686762Y-62853071D01*
X98686762Y-62900690D01*
X98996285Y-62900690D02*
X98948666Y-62876881D01*
X98924857Y-62853071D01*
X98901047Y-62805452D01*
X98901047Y-62662595D01*
X98924857Y-62614976D01*
X98948666Y-62591167D01*
X98996285Y-62567357D01*
X99067714Y-62567357D01*
X99115333Y-62591167D01*
X99139142Y-62614976D01*
X99162952Y-62662595D01*
X99162952Y-62805452D01*
X99139142Y-62853071D01*
X99115333Y-62876881D01*
X99067714Y-62900690D01*
X98996285Y-62900690D01*
X99377238Y-62900690D02*
X99377238Y-62567357D01*
X99377238Y-62662595D02*
X99401047Y-62614976D01*
X99424857Y-62591167D01*
X99472476Y-62567357D01*
X99520095Y-62567357D01*
X99901047Y-62567357D02*
X99901047Y-62972119D01*
X99877238Y-63019738D01*
X99853428Y-63043548D01*
X99805809Y-63067357D01*
X99734381Y-63067357D01*
X99686762Y-63043548D01*
X99901047Y-62876881D02*
X99853428Y-62900690D01*
X99758190Y-62900690D01*
X99710571Y-62876881D01*
X99686762Y-62853071D01*
X99662952Y-62805452D01*
X99662952Y-62662595D01*
X99686762Y-62614976D01*
X99710571Y-62591167D01*
X99758190Y-62567357D01*
X99853428Y-62567357D01*
X99901047Y-62591167D01*
%LPC*%
D15*
X84928531Y-59353682D02*
X84928531Y-60001301D01*
X84961864Y-60077491D01*
X84995197Y-60115587D01*
X85061864Y-60153682D01*
X85195197Y-60153682D01*
X85261864Y-60115587D01*
X85295197Y-60077491D01*
X85328531Y-60001301D01*
X85328531Y-59353682D01*
X85628530Y-60115587D02*
X85728530Y-60153682D01*
X85895197Y-60153682D01*
X85961864Y-60115587D01*
X85995197Y-60077491D01*
X86028530Y-60001301D01*
X86028530Y-59925110D01*
X85995197Y-59848920D01*
X85961864Y-59810825D01*
X85895197Y-59772729D01*
X85761864Y-59734634D01*
X85695197Y-59696539D01*
X85661864Y-59658444D01*
X85628530Y-59582253D01*
X85628530Y-59506063D01*
X85661864Y-59429872D01*
X85695197Y-59391777D01*
X85761864Y-59353682D01*
X85928530Y-59353682D01*
X86028530Y-59391777D01*
X86561864Y-59734634D02*
X86661864Y-59772729D01*
X86695197Y-59810825D01*
X86728531Y-59887015D01*
X86728531Y-60001301D01*
X86695197Y-60077491D01*
X86661864Y-60115587D01*
X86595197Y-60153682D01*
X86328531Y-60153682D01*
X86328531Y-59353682D01*
X86561864Y-59353682D01*
X86628531Y-59391777D01*
X86661864Y-59429872D01*
X86695197Y-59506063D01*
X86695197Y-59582253D01*
X86661864Y-59658444D01*
X86628531Y-59696539D01*
X86561864Y-59734634D01*
X86328531Y-59734634D01*
X87961864Y-60153682D02*
X87728530Y-59772729D01*
X87561864Y-60153682D02*
X87561864Y-59353682D01*
X87828530Y-59353682D01*
X87895197Y-59391777D01*
X87928530Y-59429872D01*
X87961864Y-59506063D01*
X87961864Y-59620348D01*
X87928530Y-59696539D01*
X87895197Y-59734634D01*
X87828530Y-59772729D01*
X87561864Y-59772729D01*
X88528530Y-60115587D02*
X88461864Y-60153682D01*
X88328530Y-60153682D01*
X88261864Y-60115587D01*
X88228530Y-60039396D01*
X88228530Y-59734634D01*
X88261864Y-59658444D01*
X88328530Y-59620348D01*
X88461864Y-59620348D01*
X88528530Y-59658444D01*
X88561864Y-59734634D01*
X88561864Y-59810825D01*
X88228530Y-59887015D01*
X88828530Y-60115587D02*
X88895197Y-60153682D01*
X89028530Y-60153682D01*
X89095197Y-60115587D01*
X89128530Y-60039396D01*
X89128530Y-60001301D01*
X89095197Y-59925110D01*
X89028530Y-59887015D01*
X88928530Y-59887015D01*
X88861864Y-59848920D01*
X88828530Y-59772729D01*
X88828530Y-59734634D01*
X88861864Y-59658444D01*
X88928530Y-59620348D01*
X89028530Y-59620348D01*
X89095197Y-59658444D01*
X89695197Y-60115587D02*
X89628531Y-60153682D01*
X89495197Y-60153682D01*
X89428531Y-60115587D01*
X89395197Y-60039396D01*
X89395197Y-59734634D01*
X89428531Y-59658444D01*
X89495197Y-59620348D01*
X89628531Y-59620348D01*
X89695197Y-59658444D01*
X89728531Y-59734634D01*
X89728531Y-59810825D01*
X89395197Y-59887015D01*
X89928531Y-59620348D02*
X90195197Y-59620348D01*
X90028531Y-59353682D02*
X90028531Y-60039396D01*
X90061864Y-60115587D01*
X90128531Y-60153682D01*
X90195197Y-60153682D01*
X90328531Y-59620348D02*
X90595197Y-59620348D01*
X90428531Y-59353682D02*
X90428531Y-60039396D01*
X90461864Y-60115587D01*
X90528531Y-60153682D01*
X90595197Y-60153682D01*
X91095197Y-60115587D02*
X91028531Y-60153682D01*
X90895197Y-60153682D01*
X90828531Y-60115587D01*
X90795197Y-60039396D01*
X90795197Y-59734634D01*
X90828531Y-59658444D01*
X90895197Y-59620348D01*
X91028531Y-59620348D01*
X91095197Y-59658444D01*
X91128531Y-59734634D01*
X91128531Y-59810825D01*
X90795197Y-59887015D01*
X91428531Y-60153682D02*
X91428531Y-59620348D01*
X91428531Y-59772729D02*
X91461864Y-59696539D01*
X91495197Y-59658444D01*
X91561864Y-59620348D01*
X91628531Y-59620348D01*
X92328530Y-59620348D02*
X92495197Y-60153682D01*
X92661863Y-59620348D01*
X93061863Y-59353682D02*
X93128530Y-59353682D01*
X93195196Y-59391777D01*
X93228530Y-59429872D01*
X93261863Y-59506063D01*
X93295196Y-59658444D01*
X93295196Y-59848920D01*
X93261863Y-60001301D01*
X93228530Y-60077491D01*
X93195196Y-60115587D01*
X93128530Y-60153682D01*
X93061863Y-60153682D01*
X92995196Y-60115587D01*
X92961863Y-60077491D01*
X92928530Y-60001301D01*
X92895196Y-59848920D01*
X92895196Y-59658444D01*
X92928530Y-59506063D01*
X92961863Y-59429872D01*
X92995196Y-59391777D01*
X93061863Y-59353682D01*
X93595197Y-60077491D02*
X93628530Y-60115587D01*
X93595197Y-60153682D01*
X93561863Y-60115587D01*
X93595197Y-60077491D01*
X93595197Y-60153682D01*
X93861863Y-59353682D02*
X94295196Y-59353682D01*
X94061863Y-59658444D01*
X94161863Y-59658444D01*
X94228530Y-59696539D01*
X94261863Y-59734634D01*
X94295196Y-59810825D01*
X94295196Y-60001301D01*
X94261863Y-60077491D01*
X94228530Y-60115587D01*
X94161863Y-60153682D01*
X93961863Y-60153682D01*
X93895196Y-60115587D01*
X93861863Y-60077491D01*
D16*
X89468197Y-66383777D03*
X89468197Y-64883777D03*
D17*
X100505197Y-72682277D03*
X99005197Y-72682277D03*
D18*
X93191837Y-65697277D03*
X92094557Y-65697277D03*
D19*
X85447197Y-65636277D03*
X85447197Y-66586277D03*
X85447197Y-67536277D03*
X87647197Y-67536277D03*
X87647197Y-65636277D03*
X87647197Y-66586277D03*
D20*
X95373697Y-71031277D03*
D21*
X92833697Y-71031277D03*
X90293697Y-71031277D03*
X87753697Y-71031277D03*
X85213697Y-71031277D03*
D22*
X95249197Y-67587037D03*
X97149197Y-67587037D03*
X96199197Y-65588057D03*
D23*
X75887197Y-70070277D03*
D24*
X76387197Y-67570277D03*
X76387197Y-65570277D03*
D23*
X75887197Y-63070277D03*
D25*
X105851197Y-60020377D03*
X105851197Y-73152177D03*
D26*
X101639197Y-67586277D03*
X101639197Y-70086277D03*
X101639197Y-65586277D03*
X101639197Y-63086277D03*
M02*
